<svg width="637" height="220" viewBox="0 0 637 220" fill="none" xmlns="http://www.w3.org/2000/svg">
<g clip-path="url(#clip0_38_2523)">
<path d="M65 185H632" stroke="#E5E7EB"/>
<path d="M52.6815 192.775H54.048L57.2611 200.623H57.3718L60.5849 192.775H61.9514V202.23H60.8804V195.047H60.788L57.8335 202.23H56.7994L53.8449 195.047H53.7525V202.23H52.6815V192.775ZM66.9799 202.378C66.3397 202.378 65.7781 202.225 65.2949 201.921C64.8148 201.616 64.4393 201.19 64.1685 200.642C63.9007 200.094 63.7668 199.454 63.7668 198.721C63.7668 197.983 63.9007 197.338 64.1685 196.787C64.4393 196.236 64.8148 195.808 65.2949 195.504C65.7781 195.199 66.3397 195.047 66.9799 195.047C67.62 195.047 68.1802 195.199 68.6603 195.504C69.1435 195.808 69.519 196.236 69.7867 196.787C70.0575 197.338 70.193 197.983 70.193 198.721C70.193 199.454 70.0575 200.094 69.7867 200.642C69.519 201.19 69.1435 201.616 68.6603 201.921C68.1802 202.225 67.62 202.378 66.9799 202.378ZM66.9799 201.399C67.4662 201.399 67.8663 201.274 68.1802 201.025C68.4941 200.776 68.7265 200.448 68.8773 200.042C69.0281 199.636 69.1035 199.195 69.1035 198.721C69.1035 198.247 69.0281 197.806 68.8773 197.397C68.7265 196.987 68.4941 196.656 68.1802 196.404C67.8663 196.152 67.4662 196.025 66.9799 196.025C66.4936 196.025 66.0935 196.152 65.7796 196.404C65.4657 196.656 65.2333 196.987 65.0825 197.397C64.9317 197.806 64.8563 198.247 64.8563 198.721C64.8563 199.195 64.9317 199.636 65.0825 200.042C65.2333 200.448 65.4657 200.776 65.7796 201.025C66.0935 201.274 66.4936 201.399 66.9799 201.399ZM72.9455 197.964V202.23H71.856V195.139H72.9086V196.247H73.0009C73.1671 195.887 73.4195 195.598 73.758 195.379C74.0966 195.158 74.5336 195.047 75.0691 195.047C75.5492 195.047 75.9693 195.145 76.3294 195.342C76.6895 195.536 76.9696 195.832 77.1696 196.229C77.3697 196.622 77.4697 197.121 77.4697 197.724V202.23H76.3802V197.798C76.3802 197.241 76.2355 196.807 75.9462 196.496C75.6569 196.182 75.2599 196.025 74.7552 196.025C74.4074 196.025 74.0966 196.101 73.8227 196.252C73.5518 196.402 73.3379 196.622 73.181 196.912C73.024 197.201 72.9455 197.552 72.9455 197.964Z" fill="#6B7280"/>
<path d="M148.88 193.791V192.775H155.971V193.791H152.998V202.23H151.853V193.791H148.88ZM161.094 199.331V195.139H162.183V202.23H161.094V201.03H161.02C160.854 201.39 160.595 201.696 160.244 201.948C159.894 202.198 159.45 202.322 158.915 202.322C158.472 202.322 158.078 202.225 157.733 202.031C157.388 201.835 157.118 201.539 156.921 201.145C156.724 200.748 156.625 200.248 156.625 199.645V195.139H157.715V199.571C157.715 200.088 157.859 200.5 158.149 200.808C158.441 201.116 158.813 201.27 159.266 201.27C159.537 201.27 159.812 201.201 160.092 201.062C160.375 200.924 160.612 200.711 160.803 200.425C160.997 200.139 161.094 199.774 161.094 199.331ZM167.152 202.378C166.469 202.378 165.879 202.227 165.384 201.925C164.891 201.621 164.511 201.196 164.243 200.651C163.979 200.103 163.846 199.466 163.846 198.74C163.846 198.014 163.979 197.373 164.243 196.819C164.511 196.262 164.884 195.828 165.361 195.518C165.841 195.204 166.401 195.047 167.041 195.047C167.41 195.047 167.775 195.108 168.135 195.231C168.495 195.355 168.823 195.555 169.118 195.832C169.414 196.105 169.649 196.469 169.825 196.921C170 197.373 170.088 197.931 170.088 198.592V199.054H164.622V198.112H168.98C168.98 197.712 168.9 197.355 168.74 197.041C168.583 196.727 168.358 196.479 168.066 196.298C167.777 196.116 167.435 196.025 167.041 196.025C166.607 196.025 166.232 196.133 165.915 196.349C165.601 196.561 165.359 196.838 165.19 197.18C165.021 197.521 164.936 197.887 164.936 198.278V198.906C164.936 199.442 165.028 199.896 165.213 200.268C165.401 200.637 165.661 200.919 165.993 201.113C166.325 201.304 166.712 201.399 167.152 201.399C167.438 201.399 167.697 201.359 167.927 201.279C168.161 201.196 168.363 201.073 168.532 200.91C168.701 200.743 168.832 200.537 168.925 200.291L169.977 200.587C169.866 200.944 169.68 201.257 169.419 201.528C169.157 201.796 168.834 202.005 168.449 202.156C168.064 202.304 167.632 202.378 167.152 202.378Z" fill="#6B7280"/>
<path d="M243.202 202.23L240.617 192.775H241.78L243.756 200.476H243.848L245.861 192.775H247.154L249.167 200.476H249.259L251.235 192.775H252.398L249.813 202.23H248.631L246.544 194.696H246.471L244.384 202.23H243.202ZM255.99 202.378C255.306 202.378 254.717 202.227 254.222 201.925C253.729 201.621 253.349 201.196 253.081 200.651C252.817 200.103 252.684 199.466 252.684 198.74C252.684 198.014 252.817 197.373 253.081 196.819C253.349 196.262 253.721 195.828 254.199 195.518C254.679 195.204 255.239 195.047 255.879 195.047C256.248 195.047 256.613 195.108 256.973 195.231C257.333 195.355 257.661 195.555 257.956 195.832C258.252 196.105 258.487 196.469 258.663 196.921C258.838 197.373 258.926 197.931 258.926 198.592V199.054H253.46V198.112H257.818C257.818 197.712 257.738 197.355 257.578 197.041C257.421 196.727 257.196 196.479 256.904 196.298C256.614 196.116 256.273 196.025 255.879 196.025C255.445 196.025 255.069 196.133 254.752 196.349C254.439 196.561 254.197 196.838 254.028 197.18C253.858 197.521 253.774 197.887 253.774 198.278V198.906C253.774 199.442 253.866 199.896 254.051 200.268C254.239 200.637 254.499 200.919 254.831 201.113C255.163 201.304 255.55 201.399 255.99 201.399C256.276 201.399 256.534 201.359 256.765 201.279C256.999 201.196 257.201 201.073 257.37 200.91C257.539 200.743 257.67 200.537 257.762 200.291L258.815 200.587C258.704 200.944 258.518 201.257 258.256 201.528C257.995 201.796 257.672 202.005 257.287 202.156C256.902 202.304 256.47 202.378 255.99 202.378ZM263.261 202.378C262.67 202.378 262.148 202.228 261.696 201.93C261.243 201.628 260.889 201.204 260.634 200.656C260.378 200.105 260.251 199.454 260.251 198.703C260.251 197.958 260.378 197.312 260.634 196.764C260.889 196.216 261.245 195.793 261.7 195.495C262.156 195.196 262.682 195.047 263.279 195.047C263.741 195.047 264.105 195.124 264.373 195.278C264.644 195.428 264.85 195.601 264.992 195.795C265.136 195.985 265.249 196.142 265.329 196.265H265.421V192.775H266.511V202.23H265.458V201.14H265.329C265.249 201.27 265.135 201.433 264.987 201.63C264.839 201.824 264.629 201.998 264.355 202.152C264.081 202.302 263.716 202.378 263.261 202.378ZM263.408 201.399C263.845 201.399 264.215 201.285 264.516 201.057C264.818 200.827 265.047 200.508 265.204 200.102C265.361 199.692 265.44 199.22 265.44 198.685C265.44 198.155 265.363 197.692 265.209 197.295C265.055 196.895 264.827 196.584 264.526 196.362C264.224 196.138 263.852 196.025 263.408 196.025C262.947 196.025 262.562 196.144 262.254 196.381C261.95 196.615 261.72 196.933 261.566 197.337C261.416 197.737 261.34 198.186 261.34 198.685C261.34 199.189 261.417 199.648 261.571 200.06C261.728 200.47 261.959 200.796 262.263 201.039C262.571 201.279 262.953 201.399 263.408 201.399Z" fill="#6B7280"/>
<path d="M337.34 193.791V192.775H344.431V193.791H341.458V202.23H340.313V193.791H337.34ZM347.14 197.964V202.23H346.05V192.775H347.14V196.247H347.232C347.398 195.881 347.648 195.59 347.98 195.375C348.316 195.156 348.762 195.047 349.319 195.047C349.802 195.047 350.225 195.144 350.588 195.338C350.952 195.528 351.233 195.822 351.433 196.219C351.636 196.613 351.738 197.115 351.738 197.724V202.23H350.648V197.798C350.648 197.235 350.502 196.799 350.21 196.492C349.921 196.181 349.519 196.025 349.005 196.025C348.648 196.025 348.328 196.101 348.045 196.252C347.765 196.402 347.543 196.622 347.38 196.912C347.22 197.201 347.14 197.552 347.14 197.964ZM358.2 199.331V195.139H359.289V202.23H358.2V201.03H358.126C357.96 201.39 357.701 201.696 357.35 201.948C357 202.198 356.556 202.322 356.021 202.322C355.578 202.322 355.184 202.225 354.839 202.031C354.494 201.835 354.223 201.539 354.027 201.145C353.83 200.748 353.731 200.248 353.731 199.645V195.139H354.821V199.571C354.821 200.088 354.965 200.5 355.254 200.808C355.547 201.116 355.919 201.27 356.372 201.27C356.643 201.27 356.918 201.201 357.198 201.062C357.481 200.924 357.718 200.711 357.909 200.425C358.103 200.139 358.2 199.774 358.2 199.331Z" fill="#6B7280"/>
<path d="M436.407 202.23V192.775H442.076V193.791H437.552V196.986H441.651V198.001H437.552V202.23H436.407ZM443.813 202.23V195.139H444.866V196.21H444.939C445.069 195.859 445.303 195.575 445.641 195.356C445.98 195.138 446.361 195.028 446.786 195.028C446.866 195.028 446.966 195.03 447.086 195.033C447.206 195.036 447.297 195.041 447.359 195.047V196.155C447.322 196.145 447.237 196.132 447.105 196.113C446.975 196.092 446.838 196.081 446.694 196.081C446.349 196.081 446.041 196.153 445.77 196.298C445.503 196.439 445.29 196.636 445.133 196.889C444.98 197.138 444.903 197.423 444.903 197.743V202.23H443.813ZM448.65 202.23V195.139H449.739V202.23H448.65ZM449.204 193.957C448.992 193.957 448.808 193.885 448.655 193.74C448.504 193.596 448.428 193.422 448.428 193.219C448.428 193.015 448.504 192.842 448.655 192.697C448.808 192.552 448.992 192.48 449.204 192.48C449.416 192.48 449.598 192.552 449.749 192.697C449.903 192.842 449.98 193.015 449.98 193.219C449.98 193.422 449.903 193.596 449.749 193.74C449.598 193.885 449.416 193.957 449.204 193.957Z" fill="#6B7280"/>
<path d="M533.646 195.139C533.591 194.671 533.366 194.308 532.972 194.05C532.578 193.791 532.095 193.662 531.523 193.662C531.104 193.662 530.738 193.73 530.424 193.865C530.113 194 529.87 194.187 529.695 194.424C529.522 194.66 529.436 194.93 529.436 195.231C529.436 195.484 529.496 195.701 529.616 195.882C529.739 196.061 529.896 196.21 530.087 196.33C530.278 196.447 530.478 196.544 530.687 196.621C530.897 196.695 531.089 196.755 531.264 196.801L532.225 197.06C532.471 197.124 532.745 197.213 533.046 197.327C533.351 197.441 533.642 197.597 533.919 197.794C534.199 197.987 534.43 198.237 534.611 198.541C534.793 198.846 534.884 199.22 534.884 199.663C534.884 200.174 534.75 200.636 534.482 201.048C534.217 201.461 533.83 201.788 533.319 202.031C532.811 202.275 532.194 202.396 531.467 202.396C530.79 202.396 530.204 202.287 529.709 202.068C529.216 201.85 528.828 201.545 528.545 201.154C528.265 200.763 528.107 200.31 528.07 199.792H529.252C529.282 200.149 529.402 200.445 529.612 200.679C529.824 200.91 530.092 201.082 530.415 201.196C530.741 201.307 531.092 201.362 531.467 201.362C531.904 201.362 532.297 201.291 532.645 201.15C532.992 201.005 533.268 200.805 533.471 200.55C533.674 200.291 533.776 199.989 533.776 199.645C533.776 199.331 533.688 199.075 533.513 198.878C533.337 198.681 533.106 198.521 532.82 198.398C532.534 198.275 532.225 198.167 531.892 198.075L530.729 197.743C529.99 197.53 529.405 197.227 528.975 196.833C528.544 196.439 528.328 195.924 528.328 195.287C528.328 194.757 528.471 194.296 528.758 193.902C529.047 193.505 529.435 193.197 529.921 192.979C530.41 192.757 530.957 192.646 531.56 192.646C532.169 192.646 532.711 192.755 533.185 192.974C533.659 193.189 534.034 193.485 534.311 193.86C534.591 194.236 534.739 194.662 534.754 195.139H533.646ZM538.705 202.396C538.256 202.396 537.848 202.312 537.482 202.142C537.115 201.97 536.824 201.722 536.609 201.399C536.394 201.073 536.286 200.679 536.286 200.217C536.286 199.811 536.366 199.482 536.526 199.229C536.686 198.974 536.9 198.774 537.168 198.629C537.435 198.484 537.731 198.377 538.054 198.306C538.38 198.232 538.708 198.174 539.037 198.131C539.468 198.075 539.817 198.034 540.085 198.006C540.356 197.975 540.553 197.924 540.676 197.854C540.802 197.783 540.865 197.66 540.865 197.484V197.447C540.865 196.992 540.741 196.638 540.491 196.386C540.245 196.133 539.871 196.007 539.37 196.007C538.85 196.007 538.442 196.121 538.146 196.349C537.851 196.576 537.643 196.819 537.523 197.078L536.489 196.709C536.674 196.278 536.92 195.942 537.228 195.702C537.538 195.459 537.877 195.29 538.243 195.194C538.613 195.096 538.976 195.047 539.333 195.047C539.56 195.047 539.822 195.074 540.118 195.13C540.416 195.182 540.704 195.291 540.981 195.458C541.261 195.624 541.493 195.875 541.678 196.21C541.863 196.546 541.955 196.995 541.955 197.558V202.23H540.865V201.27H540.81C540.736 201.424 540.613 201.588 540.441 201.764C540.268 201.939 540.039 202.088 539.753 202.212C539.467 202.335 539.117 202.396 538.705 202.396ZM538.871 201.417C539.302 201.417 539.665 201.333 539.961 201.164C540.259 200.994 540.484 200.776 540.635 200.508C540.788 200.24 540.865 199.959 540.865 199.663V198.666C540.819 198.721 540.718 198.772 540.561 198.818C540.407 198.861 540.228 198.9 540.025 198.934C539.825 198.965 539.63 198.992 539.439 199.017C539.251 199.038 539.099 199.057 538.982 199.072C538.699 199.109 538.434 199.169 538.188 199.252C537.945 199.332 537.748 199.454 537.597 199.617C537.449 199.777 537.375 199.996 537.375 200.273C537.375 200.651 537.515 200.937 537.795 201.131C538.079 201.322 538.437 201.417 538.871 201.417ZM547.027 195.139V196.062H543.353V195.139H547.027ZM544.424 193.44H545.513V200.199C545.513 200.506 545.558 200.737 545.647 200.891C545.739 201.042 545.856 201.144 545.998 201.196C546.142 201.245 546.295 201.27 546.455 201.27C546.575 201.27 546.673 201.264 546.75 201.251C546.827 201.236 546.889 201.224 546.935 201.214L547.157 202.193C547.083 202.221 546.98 202.248 546.847 202.276C546.715 202.307 546.547 202.322 546.344 202.322C546.036 202.322 545.735 202.256 545.439 202.124C545.147 201.991 544.904 201.79 544.71 201.519C544.519 201.248 544.424 200.907 544.424 200.494V193.44Z" fill="#6B7280"/>
<path d="M619.978 195.139C619.923 194.671 619.698 194.308 619.304 194.05C618.91 193.791 618.427 193.662 617.854 193.662C617.436 193.662 617.07 193.73 616.756 193.865C616.445 194 616.202 194.187 616.026 194.424C615.854 194.66 615.768 194.93 615.768 195.231C615.768 195.484 615.828 195.701 615.948 195.882C616.071 196.061 616.228 196.21 616.419 196.33C616.609 196.447 616.809 196.544 617.019 196.621C617.228 196.695 617.42 196.755 617.596 196.801L618.556 197.06C618.802 197.124 619.076 197.213 619.378 197.327C619.682 197.441 619.973 197.597 620.25 197.794C620.53 197.987 620.761 198.237 620.943 198.541C621.124 198.846 621.215 199.22 621.215 199.663C621.215 200.174 621.081 200.636 620.814 201.048C620.549 201.461 620.161 201.788 619.65 202.031C619.142 202.275 618.525 202.396 617.799 202.396C617.122 202.396 616.536 202.287 616.04 202.068C615.548 201.85 615.16 201.545 614.877 201.154C614.597 200.763 614.438 200.31 614.401 199.792H615.583C615.614 200.149 615.734 200.445 615.943 200.679C616.155 200.91 616.423 201.082 616.746 201.196C617.073 201.307 617.423 201.362 617.799 201.362C618.236 201.362 618.628 201.291 618.976 201.15C619.324 201.005 619.599 200.805 619.803 200.55C620.006 200.291 620.107 199.989 620.107 199.645C620.107 199.331 620.019 199.075 619.844 198.878C619.669 198.681 619.438 198.521 619.152 198.398C618.865 198.275 618.556 198.167 618.224 198.075L617.06 197.743C616.322 197.53 615.737 197.227 615.306 196.833C614.875 196.439 614.66 195.924 614.66 195.287C614.66 194.757 614.803 194.296 615.089 193.902C615.378 193.505 615.766 193.197 616.252 192.979C616.742 192.757 617.288 192.646 617.891 192.646C618.501 192.646 619.042 192.755 619.516 192.974C619.99 193.189 620.366 193.485 620.643 193.86C620.923 194.236 621.071 194.662 621.086 195.139H619.978ZM627.419 199.331V195.139H628.508V202.23H627.419V201.03H627.345C627.178 201.39 626.92 201.696 626.569 201.948C626.218 202.198 625.775 202.322 625.24 202.322C624.796 202.322 624.402 202.225 624.058 202.031C623.713 201.835 623.442 201.539 623.245 201.145C623.048 200.748 622.95 200.248 622.95 199.645V195.139H624.039V199.571C624.039 200.088 624.184 200.5 624.473 200.808C624.766 201.116 625.138 201.27 625.59 201.27C625.861 201.27 626.137 201.201 626.417 201.062C626.7 200.924 626.937 200.711 627.128 200.425C627.322 200.139 627.419 199.774 627.419 199.331ZM631.593 197.964V202.23H630.504V195.139H631.556V196.247H631.648C631.815 195.887 632.067 195.598 632.405 195.379C632.744 195.158 633.181 195.047 633.717 195.047C634.197 195.047 634.617 195.145 634.977 195.342C635.337 195.536 635.617 195.832 635.817 196.229C636.017 196.622 636.117 197.121 636.117 197.724V202.23H635.028V197.798C635.028 197.241 634.883 196.807 634.594 196.496C634.304 196.182 633.907 196.025 633.403 196.025C633.055 196.025 632.744 196.101 632.47 196.252C632.199 196.402 631.985 196.622 631.828 196.912C631.671 197.201 631.593 197.552 631.593 197.964Z" fill="#6B7280"/>
<path d="M65 5V185" stroke="#E5E7EB"/>
<path d="M48.5207 182.395L48.2068 183.466H42.2238L42.5377 182.395H48.5207ZM45.7139 189.615L42.3346 185.479L42.3161 184.703H43.9965C44.4336 184.703 44.806 184.642 45.1137 184.519C45.4215 184.392 45.6569 184.205 45.82 183.955C45.9832 183.703 46.0647 183.386 46.0647 183.004C46.0647 182.441 45.8954 182 45.5569 181.68C45.2184 181.356 44.6982 181.195 43.9965 181.195H42.2238L42.5377 180.161H43.9965C44.7475 180.161 45.363 180.285 45.8431 180.535C46.3263 180.781 46.6833 181.119 46.9142 181.55C47.1481 181.978 47.265 182.463 47.265 183.004C47.265 183.494 47.1573 183.945 46.9419 184.357C46.7295 184.766 46.3879 185.096 45.917 185.345C45.4492 185.594 44.8306 185.719 44.0612 185.719H44.0335L47.1542 189.541V189.615H45.7139ZM48.5207 180.161L48.2068 181.232L43.498 181.195L43.8119 180.161H48.5207ZM52.9375 189.744C52.242 189.744 51.6495 189.555 51.1602 189.177C50.6708 188.795 50.2969 188.243 50.0384 187.519C49.7798 186.793 49.6506 185.916 49.6506 184.888C49.6506 183.866 49.7798 182.994 50.0384 182.27C50.3 181.544 50.6754 180.99 51.1648 180.608C51.6572 180.224 52.2481 180.031 52.9375 180.031C53.6269 180.031 54.2163 180.224 54.7056 180.608C55.198 180.99 55.5735 181.544 55.832 182.27C56.0936 182.994 56.2244 183.866 56.2244 184.888C56.2244 185.916 56.0952 186.793 55.8366 187.519C55.5781 188.243 55.2042 188.795 54.7148 189.177C54.2255 189.555 53.633 189.744 52.9375 189.744ZM52.9375 188.729C53.6269 188.729 54.1624 188.396 54.544 187.732C54.9257 187.067 55.1165 186.119 55.1165 184.888C55.1165 184.069 55.0288 183.372 54.8533 182.797C54.681 182.221 54.4317 181.783 54.1055 181.481C53.7823 181.179 53.393 181.029 52.9375 181.029C52.2543 181.029 51.7203 181.366 51.3356 182.04C50.9509 182.711 50.7585 183.66 50.7585 184.888C50.7585 185.707 50.8447 186.402 51.017 186.975C51.1894 187.547 51.4371 187.983 51.7603 188.281C52.0865 188.58 52.4789 188.729 52.9375 188.729Z" fill="#6B7280"/>
<path d="M32.7023 137.395L32.3884 138.466H26.4055L26.7194 137.395H32.7023ZM29.8955 144.615L26.5162 140.479L26.4978 139.703H28.1782C28.6152 139.703 28.9876 139.642 29.2954 139.519C29.6031 139.392 29.8386 139.205 30.0017 138.955C30.1648 138.703 30.2464 138.386 30.2464 138.004C30.2464 137.441 30.0771 137 29.7385 136.68C29.4 136.356 28.8799 136.195 28.1782 136.195H26.4055L26.7194 135.161H28.1782C28.9291 135.161 29.5447 135.285 30.0248 135.535C30.508 135.781 30.865 136.119 31.0958 136.55C31.3297 136.978 31.4466 137.463 31.4466 138.004C31.4466 138.494 31.3389 138.945 31.1235 139.357C30.9111 139.766 30.5695 140.096 30.0986 140.345C29.6308 140.594 29.0122 140.719 28.2428 140.719H28.2151L31.3358 144.541V144.615H29.8955ZM32.7023 135.161L32.3884 136.232L27.6796 136.195L27.9935 135.161H32.7023ZM36.9899 144.744C36.4482 144.744 35.9604 144.637 35.5265 144.421C35.0925 144.206 34.7447 143.91 34.4831 143.535C34.2215 143.16 34.0784 142.732 34.0538 142.252H35.1618C35.2048 142.679 35.3987 143.033 35.7434 143.313C36.0912 143.59 36.5067 143.729 36.9899 143.729C37.3777 143.729 37.7224 143.638 38.024 143.456C38.3287 143.275 38.5672 143.026 38.7395 142.709C38.915 142.389 39.0027 142.027 39.0027 141.624C39.0027 141.211 38.9119 140.844 38.7303 140.52C38.5518 140.194 38.3056 139.937 37.9917 139.749C37.6777 139.562 37.3192 139.466 36.916 139.463C36.6267 139.46 36.3297 139.505 36.025 139.597C35.7203 139.686 35.4695 139.802 35.2725 139.943L34.2015 139.814L34.774 135.161H39.6859V136.176H35.7342L35.4018 138.965H35.4572C35.6511 138.811 35.8942 138.683 36.1866 138.581C36.479 138.48 36.7837 138.429 37.1007 138.429C37.6793 138.429 38.1948 138.568 38.6472 138.845C39.1027 139.119 39.4597 139.494 39.7182 139.971C39.9798 140.448 40.1106 140.993 40.1106 141.605C40.1106 142.209 39.9752 142.747 39.7044 143.221C39.4366 143.692 39.0673 144.064 38.5964 144.338C38.1255 144.609 37.59 144.744 36.9899 144.744ZM44.8991 144.744C44.3574 144.744 43.8696 144.637 43.4356 144.421C43.0017 144.206 42.6539 143.91 42.3923 143.535C42.1307 143.16 41.9876 142.732 41.963 142.252H43.0709C43.114 142.679 43.3079 143.033 43.6526 143.313C44.0004 143.59 44.4159 143.729 44.8991 143.729C45.2868 143.729 45.6315 143.638 45.9331 143.456C46.2378 143.275 46.4764 143.026 46.6487 142.709C46.8241 142.389 46.9118 142.027 46.9118 141.624C46.9118 141.211 46.8211 140.844 46.6395 140.52C46.461 140.194 46.2148 139.937 45.9008 139.749C45.5869 139.562 45.2284 139.466 44.8252 139.463C44.5359 139.46 44.2389 139.505 43.9342 139.597C43.6295 139.686 43.3787 139.802 43.1817 139.943L42.1107 139.814L42.6831 135.161H47.5951V136.176H43.6434L43.311 138.965H43.3664C43.5603 138.811 43.8034 138.683 44.0958 138.581C44.3882 138.48 44.6929 138.429 45.0099 138.429C45.5885 138.429 46.104 138.568 46.5564 138.845C47.0119 139.119 47.3689 139.494 47.6274 139.971C47.889 140.448 48.0198 140.993 48.0198 141.605C48.0198 142.209 47.8844 142.747 47.6135 143.221C47.3458 143.692 46.9765 144.064 46.5056 144.338C46.0347 144.609 45.4992 144.744 44.8991 144.744ZM52.9375 144.744C52.242 144.744 51.6495 144.555 51.1602 144.177C50.6708 143.795 50.2969 143.243 50.0384 142.519C49.7798 141.793 49.6506 140.916 49.6506 139.888C49.6506 138.866 49.7798 137.994 50.0384 137.27C50.3 136.544 50.6754 135.99 51.1648 135.608C51.6572 135.224 52.2481 135.031 52.9375 135.031C53.6269 135.031 54.2163 135.224 54.7056 135.608C55.198 135.99 55.5735 136.544 55.832 137.27C56.0936 137.994 56.2244 138.866 56.2244 139.888C56.2244 140.916 56.0952 141.793 55.8366 142.519C55.5781 143.243 55.2042 143.795 54.7148 144.177C54.2255 144.555 53.633 144.744 52.9375 144.744ZM52.9375 143.729C53.6269 143.729 54.1624 143.396 54.544 142.732C54.9257 142.067 55.1165 141.119 55.1165 139.888C55.1165 139.069 55.0288 138.372 54.8533 137.797C54.681 137.221 54.4317 136.783 54.1055 136.481C53.7823 136.179 53.393 136.029 52.9375 136.029C52.2543 136.029 51.7203 136.366 51.3356 137.04C50.9509 137.711 50.7585 138.66 50.7585 139.888C50.7585 140.707 50.8447 141.402 51.017 141.975C51.1894 142.547 51.4371 142.983 51.7603 143.281C52.0865 143.58 52.4789 143.729 52.9375 143.729Z" fill="#6B7280"/>
<path d="M28.3097 92.3951L27.9958 93.4661H22.0129L22.3268 92.3951H28.3097ZM25.5029 99.6152L22.1237 95.4789L22.1052 94.7033H23.7856C24.2226 94.7033 24.595 94.6417 24.9028 94.5186C25.2106 94.3925 25.446 94.2047 25.6091 93.9554C25.7722 93.7031 25.8538 93.3861 25.8538 93.0044C25.8538 92.4412 25.6845 91.9996 25.346 91.6795C25.0074 91.3564 24.4873 91.1948 23.7856 91.1948H22.0129L22.3268 90.1607H23.7856C24.5365 90.1607 25.1521 90.2853 25.6322 90.5346C26.1154 90.7808 26.4724 91.1194 26.7032 91.5502C26.9371 91.978 27.0541 92.4628 27.0541 93.0044C27.0541 93.4938 26.9463 93.9447 26.7309 94.3571C26.5186 94.7664 26.1769 95.0957 25.7061 95.345C25.2383 95.5943 24.6196 95.7189 23.8502 95.7189H23.8225L26.9433 99.5414V99.6152H25.5029ZM28.3097 90.1607L27.9958 91.2317L23.287 91.1948L23.6009 90.1607H28.3097ZM32.9666 90.1607V99.6152H31.8217V91.361H31.7663L29.4581 92.8936V91.7303L31.8217 90.1607H32.9666ZM39.0096 90.1607V99.6152H37.8647V91.361H37.8093L35.5011 92.8936V91.7303L37.8647 90.1607H39.0096ZM44.8125 99.7445C44.117 99.7445 43.5245 99.5552 43.0352 99.1767C42.5458 98.795 42.1719 98.2426 41.9134 97.5194C41.6548 96.793 41.5256 95.9159 41.5256 94.888C41.5256 93.8662 41.6548 92.9937 41.9134 92.2704C42.175 91.5441 42.5504 90.9901 43.0398 90.6085C43.5322 90.2238 44.1231 90.0314 44.8125 90.0314C45.5019 90.0314 46.0913 90.2238 46.5806 90.6085C47.073 90.9901 47.4485 91.5441 47.707 92.2704C47.9686 92.9937 48.0994 93.8662 48.0994 94.888C48.0994 95.9159 47.9702 96.793 47.7116 97.5194C47.4531 98.2426 47.0792 98.795 46.5898 99.1767C46.1005 99.5552 45.508 99.7445 44.8125 99.7445ZM44.8125 98.7289C45.5019 98.7289 46.0374 98.3965 46.419 97.7317C46.8007 97.0669 46.9915 96.119 46.9915 94.888C46.9915 94.0693 46.9038 93.3722 46.7283 92.7967C46.556 92.2212 46.3067 91.7826 45.9805 91.481C45.6573 91.1794 45.268 91.0286 44.8125 91.0286C44.1293 91.0286 43.5953 91.3656 43.2106 92.0396C42.8259 92.7105 42.6335 93.66 42.6335 94.888C42.6335 95.7066 42.7197 96.4022 42.892 96.9746C43.0644 97.5471 43.3121 97.9825 43.6353 98.2811C43.9615 98.5796 44.3539 98.7289 44.8125 98.7289ZM52.9375 99.7445C52.242 99.7445 51.6495 99.5552 51.1602 99.1767C50.6708 98.795 50.2969 98.2426 50.0384 97.5194C49.7798 96.793 49.6506 95.9159 49.6506 94.888C49.6506 93.8662 49.7798 92.9937 50.0384 92.2704C50.3 91.5441 50.6754 90.9901 51.1648 90.6085C51.6572 90.2238 52.2481 90.0314 52.9375 90.0314C53.6269 90.0314 54.2163 90.2238 54.7056 90.6085C55.198 90.9901 55.5735 91.5441 55.832 92.2704C56.0936 92.9937 56.2244 93.8662 56.2244 94.888C56.2244 95.9159 56.0952 96.793 55.8366 97.5194C55.5781 98.2426 55.2042 98.795 54.7148 99.1767C54.2255 99.5552 53.633 99.7445 52.9375 99.7445ZM52.9375 98.7289C53.6269 98.7289 54.1624 98.3965 54.544 97.7317C54.9257 97.0669 55.1165 96.119 55.1165 94.888C55.1165 94.0693 55.0288 93.3722 54.8533 92.7967C54.681 92.2212 54.4317 91.7826 54.1055 91.481C53.7823 91.1794 53.393 91.0286 52.9375 91.0286C52.2543 91.0286 51.7203 91.3656 51.3356 92.0396C50.9509 92.7105 50.7585 93.66 50.7585 94.888C50.7585 95.7066 50.8447 96.4022 51.017 96.9746C51.1894 97.5471 51.4371 97.9825 51.7603 98.2811C52.0865 98.5796 52.4789 98.7289 52.9375 98.7289Z" fill="#6B7280"/>
<path d="M26.4562 47.3951L26.1423 48.4661H20.1594L20.4733 47.3951H26.4562ZM23.6494 54.6152L20.2702 50.4789L20.2517 49.7033H21.9321C22.3691 49.7033 22.7415 49.6417 23.0493 49.5186C23.357 49.3925 23.5925 49.2047 23.7556 48.9554C23.9187 48.7031 24.0003 48.3861 24.0003 48.0044C24.0003 47.4412 23.831 46.9996 23.4925 46.6795C23.1539 46.3564 22.6338 46.1948 21.9321 46.1948H20.1594L20.4733 45.1607H21.9321C22.683 45.1607 23.2986 45.2853 23.7787 45.5346C24.2619 45.7808 24.6189 46.1194 24.8497 46.5502C25.0836 46.978 25.2006 47.4628 25.2006 48.0044C25.2006 48.4938 25.0928 48.9447 24.8774 49.3571C24.665 49.7664 24.3234 50.0957 23.8525 50.345C23.3847 50.5943 22.7661 50.7189 21.9967 50.7189H21.969L25.0898 54.5414V54.6152H23.6494ZM26.4562 45.1607L26.1423 46.2317L21.4335 46.1948L21.7474 45.1607H26.4562ZM31.1131 45.1607V54.6152H29.9682V46.361H29.9128L27.6046 47.8936V46.7303L29.9682 45.1607H31.1131ZM36.9714 54.7445C36.5836 54.7383 36.1958 54.6645 35.8081 54.5229C35.4203 54.3813 35.0663 54.1428 34.7463 53.8074C34.4262 53.4688 34.1692 53.0118 33.9753 52.4363C33.7814 51.8577 33.6845 51.1313 33.6845 50.2573C33.6845 49.4202 33.763 48.6784 33.9199 48.0321C34.0769 47.3828 34.3046 46.8365 34.6032 46.3933C34.9017 45.947 35.2618 45.6085 35.6834 45.3777C36.1081 45.1468 36.5867 45.0314 37.1191 45.0314C37.6485 45.0314 38.1194 45.1376 38.5318 45.35C38.9473 45.5592 39.2858 45.8516 39.5474 46.2271C39.809 46.6026 39.9783 47.035 40.0552 47.5243H38.9288C38.8242 47.0996 38.621 46.7472 38.3194 46.4672C38.0178 46.1871 37.6177 46.0471 37.1191 46.0471C36.3867 46.0471 35.8096 46.3656 35.388 47.0027C34.9694 47.6397 34.7586 48.5338 34.7555 49.6848H34.8294C35.0017 49.4232 35.2064 49.2001 35.4434 49.0154C35.6834 48.8277 35.9481 48.6831 36.2374 48.5815C36.5267 48.4799 36.8329 48.4292 37.1561 48.4292C37.6977 48.4292 38.1932 48.5646 38.6426 48.8354C39.0919 49.1032 39.452 49.474 39.7228 49.948C39.9937 50.4189 40.1291 50.959 40.1291 51.5684C40.1291 52.1531 39.9983 52.6886 39.7367 53.1749C39.4751 53.6581 39.1073 54.0428 38.6333 54.329C38.1625 54.6122 37.6085 54.7507 36.9714 54.7445ZM36.9714 53.7289C37.3592 53.7289 37.707 53.6319 38.0147 53.438C38.3256 53.2441 38.5703 52.9841 38.7488 52.6578C38.9303 52.3316 39.0211 51.9685 39.0211 51.5684C39.0211 51.1775 38.9334 50.822 38.758 50.502C38.5856 50.1788 38.3471 49.9218 38.0424 49.731C37.7408 49.5402 37.3961 49.4448 37.0083 49.4448C36.716 49.4448 36.4436 49.5033 36.1912 49.6202C35.9389 49.7341 35.7173 49.891 35.5265 50.0911C35.3387 50.2911 35.191 50.5204 35.0833 50.7789C34.9756 51.0344 34.9217 51.3037 34.9217 51.5868C34.9217 51.9623 35.0094 52.3132 35.1848 52.6394C35.3633 52.9656 35.6065 53.2288 35.9142 53.4288C36.2251 53.6288 36.5775 53.7289 36.9714 53.7289ZM44.8991 54.7445C44.3574 54.7445 43.8696 54.6368 43.4356 54.4213C43.0017 54.2059 42.6539 53.9105 42.3923 53.535C42.1307 53.1595 41.9876 52.7317 41.963 52.2516H43.0709C43.114 52.6794 43.3079 53.0333 43.6526 53.3134C44.0004 53.5904 44.4159 53.7289 44.8991 53.7289C45.2868 53.7289 45.6315 53.6381 45.9331 53.4565C46.2378 53.2749 46.4764 53.0256 46.6487 52.7086C46.8241 52.3886 46.9118 52.0269 46.9118 51.6238C46.9118 51.2114 46.8211 50.8436 46.6395 50.5204C46.461 50.1942 46.2148 49.9372 45.9008 49.7495C45.5869 49.5617 45.2284 49.4663 44.8252 49.4632C44.5359 49.4602 44.2389 49.5048 43.9342 49.5971C43.6295 49.6864 43.3787 49.8018 43.1817 49.9434L42.1107 49.8141L42.6831 45.1607H47.5951V46.1763H43.6434L43.311 48.9647H43.3664C43.5603 48.8108 43.8034 48.6831 44.0958 48.5815C44.3882 48.4799 44.6929 48.4292 45.0099 48.4292C45.5885 48.4292 46.104 48.5676 46.5564 48.8446C47.0119 49.1185 47.3689 49.494 47.6274 49.9711C47.889 50.4481 48.0198 50.9928 48.0198 51.6053C48.0198 52.2085 47.8844 52.7471 47.6135 53.2211C47.3458 53.6919 46.9765 54.0643 46.5056 54.3382C46.0347 54.6091 45.4992 54.7445 44.8991 54.7445ZM52.9375 54.7445C52.242 54.7445 51.6495 54.5552 51.1602 54.1767C50.6708 53.795 50.2969 53.2426 50.0384 52.5194C49.7798 51.793 49.6506 50.9159 49.6506 49.888C49.6506 48.8662 49.7798 47.9937 50.0384 47.2704C50.3 46.5441 50.6754 45.9901 51.1648 45.6085C51.6572 45.2238 52.2481 45.0314 52.9375 45.0314C53.6269 45.0314 54.2163 45.2238 54.7056 45.6085C55.198 45.9901 55.5735 46.5441 55.832 47.2704C56.0936 47.9937 56.2244 48.8662 56.2244 49.888C56.2244 50.9159 56.0952 51.793 55.8366 52.5194C55.5781 53.2426 55.2042 53.795 54.7148 54.1767C54.2255 54.5552 53.633 54.7445 52.9375 54.7445ZM52.9375 53.7289C53.6269 53.7289 54.1624 53.3965 54.544 52.7317C54.9257 52.0669 55.1165 51.119 55.1165 49.888C55.1165 49.0693 55.0288 48.3722 54.8533 47.7967C54.681 47.2212 54.4317 46.7826 54.1055 46.481C53.7823 46.1794 53.393 46.0286 52.9375 46.0286C52.2543 46.0286 51.7203 46.3656 51.3356 47.0396C50.9509 47.7105 50.7585 48.66 50.7585 49.888C50.7585 50.7066 50.8447 51.4022 51.017 51.9746C51.1894 52.5471 51.4371 52.9825 51.7603 53.2811C52.0865 53.5796 52.4789 53.7289 52.9375 53.7289Z" fill="#6B7280"/>
<path d="M24.6535 7.14506L24.3396 8.21609H18.3566L18.6705 7.14506H24.6535ZM21.8467 14.3652L18.4674 10.2289L18.449 9.4533H20.1294C20.5664 9.4533 20.9388 9.39175 21.2465 9.26864C21.5543 9.14246 21.7897 8.95472 21.9529 8.70543C22.116 8.45307 22.1975 8.13607 22.1975 7.75444C22.1975 7.19123 22.0283 6.74959 21.6897 6.42951C21.3512 6.10636 20.8311 5.94478 20.1294 5.94478H18.3566L18.6705 4.91069H20.1294C20.8803 4.91069 21.4958 5.03533 21.9759 5.28462C22.4591 5.53084 22.8161 5.86938 23.047 6.30025C23.2809 6.72804 23.3978 7.21277 23.3978 7.75444C23.3978 8.24379 23.2901 8.69466 23.0747 9.10707C22.8623 9.51639 22.5207 9.8457 22.0498 10.095C21.582 10.3443 20.9634 10.4689 20.194 10.4689H20.1663L23.287 14.2914V14.3652H21.8467ZM24.6535 4.91069L24.3396 5.98171L19.6308 5.94478L19.9447 4.91069H24.6535ZM25.9865 14.3652V13.5343L29.1072 10.1181C29.4735 9.71798 29.7751 9.37021 30.0121 9.07475C30.2491 8.77622 30.4245 8.49615 30.5384 8.23455C30.6553 7.96987 30.7138 7.69289 30.7138 7.40359C30.7138 7.0712 30.6338 6.78344 30.4737 6.54031C30.3168 6.29717 30.1013 6.10943 29.8274 5.97709C29.5535 5.84476 29.2457 5.77859 28.9041 5.77859C28.541 5.77859 28.224 5.85399 27.9531 6.00479C27.6854 6.15252 27.4776 6.36026 27.3299 6.62802C27.1853 6.89577 27.1129 7.20969 27.1129 7.56978H26.0234C26.0234 7.0158 26.1512 6.52953 26.4066 6.11097C26.6621 5.69241 27.0098 5.36618 27.4499 5.13228C27.8931 4.89838 28.3902 4.78143 28.9411 4.78143C29.495 4.78143 29.9859 4.89838 30.4137 5.13228C30.8415 5.36618 31.177 5.68164 31.4201 6.07866C31.6632 6.47567 31.7848 6.91732 31.7848 7.40359C31.7848 7.75136 31.7217 8.09144 31.5955 8.42383C31.4724 8.75314 31.257 9.12092 30.9492 9.52717C30.6445 9.93034 30.2214 10.4228 29.6797 11.0044L27.5561 13.2757V13.3496H31.951V14.3652H25.9865ZM33.8576 14.3652V13.5343L36.9783 10.1181C37.3446 9.71798 37.6462 9.37021 37.8832 9.07475C38.1201 8.77622 38.2956 8.49615 38.4094 8.23455C38.5264 7.96987 38.5849 7.69289 38.5849 7.40359C38.5849 7.0712 38.5049 6.78344 38.3448 6.54031C38.1879 6.29717 37.9724 6.10943 37.6985 5.97709C37.4246 5.84476 37.1168 5.77859 36.7752 5.77859C36.4121 5.77859 36.0951 5.85399 35.8242 6.00479C35.5565 6.15252 35.3487 6.36026 35.201 6.62802C35.0563 6.89577 34.984 7.20969 34.984 7.56978H33.8945C33.8945 7.0158 34.0223 6.52953 34.2777 6.11097C34.5331 5.69241 34.8809 5.36618 35.321 5.13228C35.7642 4.89838 36.2612 4.78143 36.8121 4.78143C37.3661 4.78143 37.857 4.89838 38.2848 5.13228C38.7126 5.36618 39.0481 5.68164 39.2912 6.07866C39.5343 6.47567 39.6559 6.91732 39.6559 7.40359C39.6559 7.75136 39.5928 8.09144 39.4666 8.42383C39.3435 8.75314 39.1281 9.12092 38.8203 9.52717C38.5156 9.93034 38.0924 10.4228 37.5508 11.0044L35.4272 13.2757V13.3496H39.8221V14.3652H33.8576ZM44.8125 14.4945C44.117 14.4945 43.5245 14.3052 43.0352 13.9267C42.5458 13.545 42.1719 12.9926 41.9134 12.2694C41.6548 11.543 41.5256 10.6659 41.5256 9.63796C41.5256 8.61618 41.6548 7.74367 41.9134 7.02042C42.175 6.29409 42.5504 5.74012 43.0398 5.35849C43.5322 4.97378 44.1231 4.78143 44.8125 4.78143C45.5019 4.78143 46.0913 4.97378 46.5806 5.35849C47.073 5.74012 47.4485 6.29409 47.707 7.02042C47.9686 7.74367 48.0994 8.61618 48.0994 9.63796C48.0994 10.6659 47.9702 11.543 47.7116 12.2694C47.4531 12.9926 47.0792 13.545 46.5898 13.9267C46.1005 14.3052 45.508 14.4945 44.8125 14.4945ZM44.8125 13.4789C45.5019 13.4789 46.0374 13.1465 46.419 12.4817C46.8007 11.8169 46.9915 10.869 46.9915 9.63796C46.9915 8.81931 46.9038 8.12222 46.7283 7.5467C46.556 6.97118 46.3067 6.53261 45.9805 6.231C45.6573 5.92939 45.268 5.77859 44.8125 5.77859C44.1293 5.77859 43.5953 6.11559 43.2106 6.78959C42.8259 7.46052 42.6335 8.40998 42.6335 9.63796C42.6335 10.4566 42.7197 11.1522 42.892 11.7246C43.0644 12.2971 43.3121 12.7325 43.6353 13.0311C43.9615 13.3296 44.3539 13.4789 44.8125 13.4789ZM52.9375 14.4945C52.242 14.4945 51.6495 14.3052 51.1602 13.9267C50.6708 13.545 50.2969 12.9926 50.0384 12.2694C49.7798 11.543 49.6506 10.6659 49.6506 9.63796C49.6506 8.61618 49.7798 7.74367 50.0384 7.02042C50.3 6.29409 50.6754 5.74012 51.1648 5.35849C51.6572 4.97378 52.2481 4.78143 52.9375 4.78143C53.6269 4.78143 54.2163 4.97378 54.7056 5.35849C55.198 5.74012 55.5735 6.29409 55.832 7.02042C56.0936 7.74367 56.2244 8.61618 56.2244 9.63796C56.2244 10.6659 56.0952 11.543 55.8366 12.2694C55.5781 12.9926 55.2042 13.545 54.7148 13.9267C54.2255 14.3052 53.633 14.4945 52.9375 14.4945ZM52.9375 13.4789C53.6269 13.4789 54.1624 13.1465 54.544 12.4817C54.9257 11.8169 55.1165 10.869 55.1165 9.63796C55.1165 8.81931 55.0288 8.12222 54.8533 7.5467C54.681 6.97118 54.4317 6.53261 54.1055 6.231C53.7823 5.92939 53.393 5.77859 52.9375 5.77859C52.2543 5.77859 51.7203 6.11559 51.3356 6.78959C50.9509 7.46052 50.7585 8.40998 50.7585 9.63796C50.7585 10.4566 50.8447 11.1522 51.017 11.7246C51.1894 12.2971 51.4371 12.7325 51.7603 13.0311C52.0865 13.3296 52.4789 13.4789 52.9375 13.4789Z" fill="#6B7280"/>
<path d="M65 25.4554C96.5 24.2274 128 23.0004 159.5 23.0004C191 23.0004 222.5 24.6364 254 24.6364C285.5 24.6364 317 19.7274 348.5 19.7274C380 19.7274 411.5 20.5454 443 20.5454C474.5 20.5454 506 18.2274 537.5 17.2734C569 16.3184 600.5 15.5684 632 14.8184" stroke="#2D5A3D" stroke-width="3"/>
<path d="M65 30.4546C67.7614 30.4546 70 28.216 70 25.4546C70 22.6932 67.7614 20.4546 65 20.4546C62.2386 20.4546 60 22.6932 60 25.4546C60 28.216 62.2386 30.4546 65 30.4546Z" fill="#2D5A3D" stroke="white" stroke-width="2"/>
<path d="M159.5 28C162.261 28 164.5 25.7614 164.5 23C164.5 20.2386 162.261 18 159.5 18C156.739 18 154.5 20.2386 154.5 23C154.5 25.7614 156.739 28 159.5 28Z" fill="#2D5A3D" stroke="white" stroke-width="2"/>
<path d="M254 29.6367C256.761 29.6367 259 27.3981 259 24.6367C259 21.8753 256.761 19.6367 254 19.6367C251.239 19.6367 249 21.8753 249 24.6367C249 27.3981 251.239 29.6367 254 29.6367Z" fill="#2D5A3D" stroke="white" stroke-width="2"/>
<path d="M348.5 24.7275C351.261 24.7275 353.5 22.489 353.5 19.7275C353.5 16.9661 351.261 14.7275 348.5 14.7275C345.739 14.7275 343.5 16.9661 343.5 19.7275C343.5 22.489 345.739 24.7275 348.5 24.7275Z" fill="#2D5A3D" stroke="white" stroke-width="2"/>
<path d="M443 25.5454C445.761 25.5454 448 23.3068 448 20.5454C448 17.784 445.761 15.5454 443 15.5454C440.239 15.5454 438 17.784 438 20.5454C438 23.3068 440.239 25.5454 443 25.5454Z" fill="#2D5A3D" stroke="white" stroke-width="2"/>
<path d="M537.5 22.273C540.261 22.273 542.5 20.0344 542.5 17.273C542.5 14.5115 540.261 12.2729 537.5 12.2729C534.739 12.2729 532.5 14.5115 532.5 17.273C532.5 20.0344 534.739 22.273 537.5 22.273Z" fill="#2D5A3D" stroke="white" stroke-width="2"/>
<path d="M632 19.8184C634.761 19.8184 637 17.5798 637 14.8184C637 12.0569 634.761 9.81836 632 9.81836C629.239 9.81836 627 12.0569 627 14.8184C627 17.5798 629.239 19.8184 632 19.8184Z" fill="#2D5A3D" stroke="white" stroke-width="2"/>
</g>
<defs>
<clipPath id="clip0_38_2523">
<rect width="637" height="220" fill="white"/>
</clipPath>
</defs>
</svg>
