<svg width="14" height="14" viewBox="0 0 14 14" fill="none" xmlns="http://www.w3.org/2000/svg">
<g clip-path="url(#clip0_34_1612)">
<path d="M5.79611 9.04085C5.74404 8.839 5.63882 8.65478 5.49142 8.50737C5.34401 8.35997 5.15979 8.25475 4.95793 8.20268L1.37949 7.27992C1.31844 7.26259 1.2647 7.22582 1.22644 7.17519C1.18818 7.12456 1.16748 7.06283 1.16748 6.99936C1.16748 6.9359 1.18818 6.87417 1.22644 6.82353C1.2647 6.7729 1.31844 6.73613 1.37949 6.7188L4.95793 5.79547C5.15972 5.74344 5.34389 5.63831 5.49129 5.49101C5.63869 5.34371 5.74395 5.15962 5.79611 4.95787L6.71887 1.37943C6.73602 1.31813 6.77275 1.26413 6.82346 1.22567C6.87417 1.1872 6.93607 1.16638 6.99972 1.16638C7.06337 1.16638 7.12527 1.1872 7.17597 1.22567C7.22668 1.26413 7.26342 1.31813 7.28057 1.37943L8.20274 4.95787C8.25481 5.15973 8.36003 5.34394 8.50744 5.49135C8.65485 5.63876 8.83906 5.74397 9.04092 5.79605L12.6194 6.71822C12.6809 6.73519 12.7352 6.77189 12.7738 6.82267C12.8125 6.87346 12.8335 6.93553 12.8335 6.99936C12.8335 7.0632 12.8125 7.12527 12.7738 7.17605C12.7352 7.22684 12.6809 7.26353 12.6194 7.28051L9.04092 8.20268C8.83906 8.25475 8.65485 8.35997 8.50744 8.50737C8.36003 8.65478 8.25481 8.839 8.20274 9.04085L7.27999 12.6193C7.26283 12.6806 7.2261 12.7346 7.17539 12.7731C7.12468 12.8115 7.06278 12.8323 6.99913 12.8323C6.93549 12.8323 6.87359 12.8115 6.82288 12.7731C6.77217 12.7346 6.73544 12.6806 6.71828 12.6193L5.79611 9.04085Z" stroke="#E17100" stroke-width="1.16657" stroke-linecap="round" stroke-linejoin="round"/>
<path d="M11.6658 1.74988V4.08301" stroke="#E17100" stroke-width="1.16657" stroke-linecap="round" stroke-linejoin="round"/>
<path d="M12.8322 2.91638H10.499" stroke="#E17100" stroke-width="1.16657" stroke-linecap="round" stroke-linejoin="round"/>
<path d="M2.33325 9.91577V11.0823" stroke="#E17100" stroke-width="1.16657" stroke-linecap="round" stroke-linejoin="round"/>
<path d="M2.91632 10.4991H1.74976" stroke="#E17100" stroke-width="1.16657" stroke-linecap="round" stroke-linejoin="round"/>
</g>
<defs>
<clipPath id="clip0_34_1612">
<rect width="13.9988" height="13.9988" fill="white"/>
</clipPath>
</defs>
</svg>
