<svg width="16" height="16" viewBox="0 0 16 16" fill="none" xmlns="http://www.w3.org/2000/svg">
<path d="M8 1.33337C7.46957 1.33337 6.96086 1.54409 6.58579 1.91916C6.21071 2.29423 6 2.80294 6 3.33337V8.00004C6 8.53047 6.21071 9.03918 6.58579 9.41425C6.96086 9.78933 7.46957 10 8 10C8.53043 10 9.03914 9.78933 9.41421 9.41425C9.78929 9.03918 10 8.53047 10 8.00004V3.33337C10 2.80294 9.78929 2.29423 9.41421 1.91916C9.03914 1.54409 8.53043 1.33337 8 1.33337Z" stroke="#2D7A3E" stroke-width="1.33333" stroke-linecap="round" stroke-linejoin="round"/>
<path d="M12.6666 6.66663V7.99996C12.6666 9.23764 12.1749 10.4246 11.2998 11.2998C10.4246 12.175 9.2376 12.6666 7.99992 12.6666C6.76224 12.6666 5.57526 12.175 4.70009 11.2998C3.82492 10.4246 3.33325 9.23764 3.33325 7.99996V6.66663" stroke="#2D7A3E" stroke-width="1.33333" stroke-linecap="round" stroke-linejoin="round"/>
<path d="M8 12.6666V14.6666" stroke="#2D7A3E" stroke-width="1.33333" stroke-linecap="round" stroke-linejoin="round"/>
</svg>
