<svg width="28" height="28" viewBox="0 0 28 28" fill="none" xmlns="http://www.w3.org/2000/svg">
<path d="M8.16675 23.3333H19.8334" stroke="white" stroke-width="2.33333" stroke-linecap="round" stroke-linejoin="round"/>
<path d="M11.6667 23.3334C18.0834 20.4167 12.6001 15.8667 15.1667 11.6667" stroke="white" stroke-width="2.33333" stroke-linecap="round" stroke-linejoin="round"/>
<path d="M11.0834 10.9667C12.3667 11.9 13.1834 13.5334 13.7667 15.2834C11.4334 15.75 9.68341 15.75 8.16675 14.9334C6.76675 14.2334 5.48341 12.7167 4.66675 10.0334C7.93341 9.45003 9.80008 10.0334 11.0834 10.9667Z" stroke="white" stroke-width="2.33333" stroke-linecap="round" stroke-linejoin="round"/>
<path d="M16.45 7.00008C15.5605 8.39023 15.1131 10.0173 15.1667 11.6667C17.3833 11.5501 19.0167 10.9667 20.1833 10.0334C21.35 8.86675 22.05 7.35008 22.1667 4.66675C19.0167 4.78341 17.5 5.83341 16.45 7.00008Z" stroke="white" stroke-width="2.33333" stroke-linecap="round" stroke-linejoin="round"/>
</svg>
