<svg width="16" height="16" viewBox="0 0 16 16" fill="none" xmlns="http://www.w3.org/2000/svg">
<path d="M4.6665 13.3333H11.3332" stroke="#2D5A3D" stroke-width="1.33333" stroke-linecap="round" stroke-linejoin="round"/>
<path d="M6.6665 13.3334C10.3332 11.6667 7.19984 9.06675 8.6665 6.66675" stroke="#2D5A3D" stroke-width="1.33333" stroke-linecap="round" stroke-linejoin="round"/>
<path d="M6.33317 6.26665C7.0665 6.79998 7.53317 7.73331 7.8665 8.73331C6.53317 8.99998 5.53317 8.99998 4.6665 8.53331C3.8665 8.13331 3.13317 7.26665 2.6665 5.73331C4.53317 5.39998 5.59984 5.73331 6.33317 6.26665Z" stroke="#2D5A3D" stroke-width="1.33333" stroke-linecap="round" stroke-linejoin="round"/>
<path d="M9.39986 4.00008C8.89158 4.79445 8.63591 5.72418 8.66652 6.66675C9.93319 6.60008 10.8665 6.26675 11.5332 5.73342C12.1999 5.06675 12.5999 4.20008 12.6665 2.66675C10.8665 2.73341 9.99986 3.33341 9.39986 4.00008Z" stroke="#2D5A3D" stroke-width="1.33333" stroke-linecap="round" stroke-linejoin="round"/>
</svg>
