<svg width="275" height="64" viewBox="0 0 275 64" fill="none" xmlns="http://www.w3.org/2000/svg">
<path d="M59.3281 21.9883C59.3281 20.8837 60.2236 19.9883 61.3281 19.9883C62.4327 19.9883 63.3281 20.8837 63.3281 21.9883V42.0117C63.3281 43.1163 62.4327 44.0117 61.3281 44.0117C60.2236 44.0117 59.3281 43.1163 59.3281 42.0117V21.9883Z" fill="white" fill-opacity="0.6"/>
<path d="M67.3281 21.7539C67.3281 20.6493 68.2236 19.7539 69.3281 19.7539C70.4327 19.7539 71.3281 20.6493 71.3281 21.7539V42.2461C71.3281 43.3507 70.4327 44.2461 69.3281 44.2461C68.2236 44.2461 67.3281 43.3507 67.3281 42.2461V21.7539Z" fill="white" fill-opacity="0.6"/>
<path d="M75.3281 10.3828C75.3281 9.27824 76.2236 8.38281 77.3281 8.38281C78.4327 8.38281 79.3281 9.27824 79.3281 10.3828V53.6172C79.3281 54.7218 78.4327 55.6172 77.3281 55.6172C76.2236 55.6172 75.3281 54.7218 75.3281 53.6172V10.3828Z" fill="white" fill-opacity="0.6"/>
<path d="M83.3281 22.207C83.3281 21.1025 84.2236 20.207 85.3281 20.207C86.4327 20.207 87.3281 21.1025 87.3281 22.207V41.793C87.3281 42.8975 86.4327 43.793 85.3281 43.793C84.2236 43.793 83.3281 42.8975 83.3281 41.793V22.207Z" fill="white" fill-opacity="0.6"/>
<path d="M91.3281 10.7031C91.3281 9.59856 92.2236 8.70312 93.3281 8.70312C94.4327 8.70312 95.3281 9.59856 95.3281 10.7031V53.2969C95.3281 54.4014 94.4327 55.2969 93.3281 55.2969C92.2236 55.2969 91.3281 54.4014 91.3281 53.2969V10.7031Z" fill="white" fill-opacity="0.6"/>
<path d="M99.3281 13.3594C99.3281 12.2548 100.224 11.3594 101.328 11.3594C102.433 11.3594 103.328 12.2548 103.328 13.3594V50.6406C103.328 51.7452 102.433 52.6406 101.328 52.6406C100.224 52.6406 99.3281 51.7452 99.3281 50.6406V13.3594Z" fill="white" fill-opacity="0.6"/>
<path d="M107.328 25.3906C107.328 24.2861 108.224 23.3906 109.328 23.3906C110.433 23.3906 111.328 24.2861 111.328 25.3906V38.6094C111.328 39.7139 110.433 40.6094 109.328 40.6094C108.224 40.6094 107.328 39.7139 107.328 38.6094V25.3906Z" fill="white" fill-opacity="0.6"/>
<path d="M115.328 12.6055C115.328 11.5009 116.224 10.6055 117.328 10.6055C118.433 10.6055 119.328 11.5009 119.328 12.6055V51.3945C119.328 52.4991 118.433 53.3945 117.328 53.3945C116.224 53.3945 115.328 52.4991 115.328 51.3945V12.6055Z" fill="white" fill-opacity="0.6"/>
<path d="M123.328 13.3086C123.328 12.204 124.224 11.3086 125.328 11.3086C126.433 11.3086 127.328 12.204 127.328 13.3086V50.6914C127.328 51.796 126.433 52.6914 125.328 52.6914C124.224 52.6914 123.328 51.796 123.328 50.6914V13.3086Z" fill="white" fill-opacity="0.6"/>
<path d="M131.328 23.9922C131.328 22.8876 132.224 21.9922 133.328 21.9922C134.433 21.9922 135.328 22.8876 135.328 23.9922V40.0078C135.328 41.1124 134.433 42.0078 133.328 42.0078C132.224 42.0078 131.328 41.1124 131.328 40.0078V23.9922Z" fill="white" fill-opacity="0.6"/>
<path d="M139.328 20.4219C139.328 19.3173 140.224 18.4219 141.328 18.4219C142.433 18.4219 143.328 19.3173 143.328 20.4219V43.5781C143.328 44.6827 142.433 45.5781 141.328 45.5781C140.224 45.5781 139.328 44.6827 139.328 43.5781V20.4219Z" fill="white" fill-opacity="0.6"/>
<path d="M147.328 22.4062C147.328 21.3017 148.224 20.4062 149.328 20.4062C150.433 20.4062 151.328 21.3017 151.328 22.4062V41.5938C151.328 42.6983 150.433 43.5938 149.328 43.5938C148.224 43.5938 147.328 42.6983 147.328 41.5938V22.4062Z" fill="white" fill-opacity="0.6"/>
<path d="M155.328 13.3477C155.328 12.2431 156.224 11.3477 157.328 11.3477C158.433 11.3477 159.328 12.2431 159.328 13.3477V50.6523C159.328 51.7569 158.433 52.6523 157.328 52.6523C156.224 52.6523 155.328 51.7569 155.328 50.6523V13.3477Z" fill="white" fill-opacity="0.6"/>
<path d="M163.328 27.1172C163.328 26.0126 164.224 25.1172 165.328 25.1172C166.433 25.1172 167.328 26.0126 167.328 27.1172V36.8828C167.328 37.9874 166.433 38.8828 165.328 38.8828C164.224 38.8828 163.328 37.9874 163.328 36.8828V27.1172Z" fill="white" fill-opacity="0.6"/>
<path d="M171.328 18.0312C171.328 16.9267 172.224 16.0312 173.328 16.0312C174.433 16.0312 175.328 16.9267 175.328 18.0312V45.9688C175.328 47.0733 174.433 47.9688 173.328 47.9688C172.224 47.9688 171.328 47.0733 171.328 45.9688V18.0312Z" fill="white" fill-opacity="0.6"/>
<path d="M179.328 17.9336C179.328 16.829 180.224 15.9336 181.328 15.9336C182.433 15.9336 183.328 16.829 183.328 17.9336V46.0664C183.328 47.171 182.433 48.0664 181.328 48.0664C180.224 48.0664 179.328 47.171 179.328 46.0664V17.9336Z" fill="white" fill-opacity="0.6"/>
<path d="M187.328 20.7891C187.328 19.6845 188.224 18.7891 189.328 18.7891C190.433 18.7891 191.328 19.6845 191.328 20.7891V43.2109C191.328 44.3155 190.433 45.2109 189.328 45.2109C188.224 45.2109 187.328 44.3155 187.328 43.2109V20.7891Z" fill="white" fill-opacity="0.6"/>
<path d="M195.328 24.3437C195.328 23.2392 196.224 22.3438 197.328 22.3438C198.433 22.3438 199.328 23.2392 199.328 24.3437V39.6562C199.328 40.7608 198.433 41.6562 197.328 41.6562C196.224 41.6562 195.328 40.7608 195.328 39.6562V24.3437Z" fill="white" fill-opacity="0.6"/>
<path d="M203.328 15.9727C203.328 14.8681 204.224 13.9727 205.328 13.9727C206.433 13.9727 207.328 14.8681 207.328 15.9727V48.0273C207.328 49.1319 206.433 50.0273 205.328 50.0273C204.224 50.0273 203.328 49.1319 203.328 48.0273V15.9727Z" fill="white" fill-opacity="0.6"/>
<path d="M211.328 19.7617C211.328 18.6572 212.224 17.7617 213.328 17.7617C214.433 17.7617 215.328 18.6571 215.328 19.7617V44.2383C215.328 45.3428 214.433 46.2383 213.328 46.2383C212.224 46.2383 211.328 45.3429 211.328 44.2383V19.7617Z" fill="white" fill-opacity="0.6"/>
</svg>
